<mxfile host="app.diagrams.net" modified="2022-10-13T11:08:12.245Z" agent="5.0 (Windows NT 10.0; Win64; x64) AppleWebKit/537.36 (KHTML, like Gecko) Chrome/106.0.0.0 Safari/537.36" etag="mMl6Ef7kaoT7SzBTg36a" version="20.4.0" type="github">
  <diagram id="C5RBs43oDa-KdzZeNtuy" name="Page-1">
    <mxGraphModel dx="599" dy="317" grid="1" gridSize="10" guides="1" tooltips="1" connect="1" arrows="1" fold="1" page="1" pageScale="1" pageWidth="1169" pageHeight="827" math="0" shadow="0">
      <root>
        <mxCell id="WIyWlLk6GJQsqaUBKTNV-0" />
        <mxCell id="WIyWlLk6GJQsqaUBKTNV-1" parent="WIyWlLk6GJQsqaUBKTNV-0" />
        <mxCell id="DYOzu0cz5z-bIzs9s9Vn-2" style="edgeStyle=orthogonalEdgeStyle;rounded=0;orthogonalLoop=1;jettySize=auto;html=1;exitX=0.5;exitY=1;exitDx=0;exitDy=0;entryX=0.5;entryY=0;entryDx=0;entryDy=0;" edge="1" parent="WIyWlLk6GJQsqaUBKTNV-1" source="DYOzu0cz5z-bIzs9s9Vn-0" target="DYOzu0cz5z-bIzs9s9Vn-1">
          <mxGeometry relative="1" as="geometry" />
        </mxCell>
        <mxCell id="DYOzu0cz5z-bIzs9s9Vn-0" value="out (&quot;Introduce un numero del 1 al 7&quot;)" style="rounded=1;whiteSpace=wrap;html=1;" vertex="1" parent="WIyWlLk6GJQsqaUBKTNV-1">
          <mxGeometry x="525" width="120" height="60" as="geometry" />
        </mxCell>
        <mxCell id="DYOzu0cz5z-bIzs9s9Vn-4" style="edgeStyle=orthogonalEdgeStyle;rounded=0;orthogonalLoop=1;jettySize=auto;html=1;exitX=0.5;exitY=1;exitDx=0;exitDy=0;entryX=0.5;entryY=0;entryDx=0;entryDy=0;" edge="1" parent="WIyWlLk6GJQsqaUBKTNV-1" source="DYOzu0cz5z-bIzs9s9Vn-1" target="DYOzu0cz5z-bIzs9s9Vn-3">
          <mxGeometry relative="1" as="geometry" />
        </mxCell>
        <mxCell id="DYOzu0cz5z-bIzs9s9Vn-1" value="byte dia = read.nextByte" style="rounded=1;whiteSpace=wrap;html=1;" vertex="1" parent="WIyWlLk6GJQsqaUBKTNV-1">
          <mxGeometry x="525" y="110" width="120" height="60" as="geometry" />
        </mxCell>
        <mxCell id="DYOzu0cz5z-bIzs9s9Vn-3" value="case dia" style="shape=hexagon;perimeter=hexagonPerimeter2;whiteSpace=wrap;html=1;fixedSize=1;" vertex="1" parent="WIyWlLk6GJQsqaUBKTNV-1">
          <mxGeometry x="525" y="220" width="120" height="40" as="geometry" />
        </mxCell>
      </root>
    </mxGraphModel>
  </diagram>
</mxfile>
